<?xml version="1.0" encoding="utf-8"?>
<!-- Generator: Adobe Illustrator 21.1.0, SVG Export Plug-In . SVG Version: 6.00 Build 0)  -->
<!DOCTYPE svg PUBLIC "-//W3C//DTD SVG 1.1//EN" "http://www.w3.org/Graphics/SVG/1.1/DTD/svg11.dtd">
<svg version="1.1" id="Layer_1" xmlns="http://www.w3.org/2000/svg" xmlns:xlink="http://www.w3.org/1999/xlink" x="0px" y="0px"
	 viewBox="0 0 2000 250" style="enable-background:new 0 0 2000 250;" xml:space="preserve">
<style type="text/css">
	.st0{fill:#74C044;}
	.st1{fill:#3D3D3E;}
</style>
<g>
	<g>
		<path class="st0" d="M78.4,191.5V82.7H39.4V62.9h100.4v19.9h-38.9v108.7H78.4z"/>
		<path class="st0" d="M246.9,191.5l-28.5-48H196v48h-22.6V62.9h56.5c25.4,0,42,16.6,42,40.3c0,22.9-15,35.3-30.5,37.8l31.4,50.5
			H246.9z M248.8,103.2c0-12.3-9.3-20.4-22-20.4H196v40.9h30.8C239.5,123.6,248.8,115.5,248.8,103.2z"/>
		<path class="st0" d="M308.9,191.5V62.9H397v19.9h-65.5v33.4h64.2v19.9h-64.2v35.7H397v19.9H308.9z"/>
		<path class="st0" d="M533,191.5l-25.1-94.9L483,191.5h-24.1L422.1,62.9h25.3l25.1,99.1L499,62.9H517l26.6,99.1l24.9-99.1h25.3
			l-36.6,128.6H533z"/>
		<path class="st1" d="M764.1,191.5l-43.2-54.2l-11.2,13.1v41.1h-22.6V62.9h22.6v61.3l50.3-61.3h28l-52.2,60.7l56.1,67.9H764.1z"/>
		<path class="st1" d="M911,191.5l-67.1-91.8v91.8h-22.6V62.9h23.1l65.7,89.3V62.9h22.6v128.6H911z"/>
		<path class="st1" d="M968.9,127.3c0-38.4,27.2-66.5,65.7-66.5c38.6,0,65.7,28.1,65.7,66.5c0,38.4-27.2,66.5-65.7,66.5
			C996,193.8,968.9,165.6,968.9,127.3z M1077.2,127.3c0-26.6-16.8-46.5-42.6-46.5c-26,0-42.6,19.9-42.6,46.5
			c0,26.4,16.6,46.5,42.6,46.5C1060.4,173.7,1077.2,153.7,1077.2,127.3z"/>
		<path class="st1" d="M1231.1,191.5L1206,96.6l-24.9,94.9H1157l-36.8-128.6h25.3l25.1,99.1l26.6-99.1h17.9l26.6,99.1l24.9-99.1
			h25.3l-36.6,128.6H1231.1z"/>
		<path class="st1" d="M1321.3,191.5V62.9h22.6v108.7h56.7v19.9H1321.3z"/>
		<path class="st1" d="M1435.4,191.5V62.9h88.1v19.9H1458v33.4h64.2v19.9H1458v35.7h65.6v19.9H1435.4z"/>
		<path class="st1" d="M1561.1,191.5V62.9h47.8c40.1,0,67.3,26.6,67.3,64.4c0,37.8-27.2,64.2-67.3,64.2H1561.1z M1653.1,127.3
			c0-24.9-15.4-44.5-44.1-44.5h-25.3v88.9h25.3C1636.9,171.6,1653.1,151.5,1653.1,127.3z"/>
		<path class="st1" d="M1706.7,127.3c0-40.3,30.3-66.5,67.5-66.5c25.1,0,41.5,12,51.9,26.8l-18.5,10.4c-6.7-9.6-18.9-17.2-33.4-17.2
			c-25.4,0-44.3,19.5-44.3,46.5c0,27,18.9,46.7,44.3,46.7c13.1,0,24.7-6.2,30.5-11.6v-20.1h-38.4v-19.9h60.9v48.2
			c-12.7,14.1-30.7,23.3-53,23.3C1736.9,194,1706.7,167.5,1706.7,127.3z"/>
		<path class="st1" d="M1865.2,191.5V62.9h88.1v19.9h-65.6v33.4h64.2v19.9h-64.2v35.7h65.6v19.9H1865.2z"/>
	</g>
</g>
</svg>
